<svg width="500" height="300" viewBox="0 0 500 300" fill="none" xmlns="http://www.w3.org/2000/svg">
<rect width="500" height="300" fill="#3C3C3C"/>
<g opacity="0.6" clip-path="url(#clip0_6_13)">
<path d="M306.375 119C300.125 119 300.125 125.25 300.125 125.25V131.5H318.875C315.75 125.25 309.5 119 306.375 119Z" fill="#CCCCCC"/>
<path d="M343.875 156.5C337.625 156.5 322 134.625 318.875 131.5C315.75 128.375 312.625 125.25 309.5 125.25C309.5 125.25 306.375 125.25 303.25 128.375C300.125 131.5 293.875 134.625 287.625 134.625C284.103 134.625 285.973 134.625 281.375 134.625C278.25 134.625 275.125 134.625 275.125 137.75V144C275.125 147.125 272 153.366 272 162.75V172.125H362.625V159.625C347 156.5 343.875 156.5 343.875 156.5Z" fill="#E6E6E6"/>
<path d="M318.875 131.5C315.75 128.375 312.625 125.25 309.5 125.25C309.5 125.25 306.375 125.25 303.25 128.375C303.25 128.375 309.5 134.625 312.625 137.75C314.834 139.959 312.625 140.877 315.75 144C318.875 147.125 322 144 325.125 147.125C331.375 153.377 334.5 159.625 343.875 159.625V156.5C337.625 156.5 322 134.625 318.875 131.5Z" fill="#4C78A0"/>
<path fill-rule="evenodd" clip-rule="evenodd" d="M325.125 159.625C325.125 153.375 318.875 150.25 318.875 150.25C318.875 150.25 319.17 156.5 315.75 156.5C313.167 156.5 308.205 154.653 302.612 152.12C307.728 145.603 315.053 138.448 318.875 134.625C318.875 134.625 318.875 131.5 315.75 128.375C312.625 125.25 309.5 125.25 309.5 125.25C301.323 133.427 294.022 139.87 288.08 144.895C280.844 141.059 275.125 137.75 275.125 137.75V140.875C275.125 140.875 279.175 143.82 284.745 147.688C276.781 154.308 272 157.958 272 159.625C272 162.642 272 172.125 272 172.125H297C297 172.125 297 169.277 297 162.75C297 161.266 297.766 159.369 299.022 157.247C306.417 161.969 313.281 165.875 315.75 165.875C318.875 165.875 325.125 165.875 325.125 159.625ZM362.625 159.625C362.625 159.625 359.5 165.877 350.125 165.877C347 165.877 347 162.75 347 159.625C347 159.625 347 156.5 343.875 156.5C340.75 156.5 337.625 159.625 334.5 162.75C331.375 165.875 322 172.125 322 172.125H368.875V165.877C368.875 159.625 362.625 159.625 362.625 159.625Z" fill="#2EC8C8"/>
<path d="M368.875 165.875C365.75 165.875 361.687 172.125 322 172.125C306.375 172.125 278.25 169 275.125 169C272 169 272 169 272 172.125C272 178.375 272 181.5 282.938 181.5C293.452 181.5 315.042 181.5 322 181.5C331.375 181.5 372 181.5 372 169C372 169 372 165.875 368.875 165.875Z" fill="#CCCCCC"/>
</g>
<g opacity="0.8" clip-path="url(#clip1_6_13)">
<path d="M234.375 119C228.125 119 228.125 125.25 228.125 125.25V131.5H246.875C243.75 125.25 237.5 119 234.375 119Z" fill="#CCCCCC"/>
<path d="M271.875 156.5C265.625 156.5 250 134.625 246.875 131.5C243.75 128.375 240.625 125.25 237.5 125.25C237.5 125.25 234.375 125.25 231.25 128.375C228.125 131.5 221.875 134.625 215.625 134.625C212.103 134.625 213.973 134.625 209.375 134.625C206.25 134.625 203.125 134.625 203.125 137.75V144C203.125 147.125 200 153.366 200 162.75V172.125H290.625V159.625C275 156.5 271.875 156.5 271.875 156.5Z" fill="#E6E6E6"/>
<path d="M246.875 131.5C243.75 128.375 240.625 125.25 237.5 125.25C237.5 125.25 234.375 125.25 231.25 128.375C231.25 128.375 237.5 134.625 240.625 137.75C242.834 139.959 240.625 140.877 243.75 144C246.875 147.125 250 144 253.125 147.125C259.375 153.377 262.5 159.625 271.875 159.625V156.5C265.625 156.5 250 134.625 246.875 131.5Z" fill="#D4C857"/>
<path fill-rule="evenodd" clip-rule="evenodd" d="M253.125 159.625C253.125 153.375 246.875 150.25 246.875 150.25C246.875 150.25 247.17 156.5 243.75 156.5C241.167 156.5 236.205 154.653 230.612 152.12C235.728 145.603 243.053 138.448 246.875 134.625C246.875 134.625 246.875 131.5 243.75 128.375C240.625 125.25 237.5 125.25 237.5 125.25C229.323 133.427 222.022 139.87 216.08 144.895C208.844 141.059 203.125 137.75 203.125 137.75V140.875C203.125 140.875 207.175 143.82 212.745 147.688C204.781 154.308 200 157.958 200 159.625C200 162.642 200 172.125 200 172.125H225C225 172.125 225 169.277 225 162.75C225 161.266 225.766 159.369 227.022 157.247C234.417 161.969 241.281 165.875 243.75 165.875C246.875 165.875 253.125 165.875 253.125 159.625ZM290.625 159.625C290.625 159.625 287.5 165.877 278.125 165.877C275 165.877 275 162.75 275 159.625C275 159.625 275 156.5 271.875 156.5C268.75 156.5 265.625 159.625 262.5 162.75C259.375 165.875 250 172.125 250 172.125H296.875V165.877C296.875 159.625 290.625 159.625 290.625 159.625Z" fill="#D2A35C"/>
<path d="M296.875 165.875C293.75 165.875 289.687 172.125 250 172.125C234.375 172.125 206.25 169 203.125 169C200 169 200 169 200 172.125C200 178.375 200 181.5 210.938 181.5C221.452 181.5 243.042 181.5 250 181.5C259.375 181.5 300 181.5 300 169C300 169 300 165.875 296.875 165.875Z" fill="#CCCCCC"/>
</g>
<g clip-path="url(#clip2_6_13)">
<path d="M162.375 119C156.125 119 156.125 125.25 156.125 125.25V131.5H174.875C171.75 125.25 165.5 119 162.375 119Z" fill="#CCCCCC"/>
<path d="M199.875 156.5C193.625 156.5 178 134.625 174.875 131.5C171.75 128.375 168.625 125.25 165.5 125.25C165.5 125.25 162.375 125.25 159.25 128.375C156.125 131.5 149.875 134.625 143.625 134.625C140.103 134.625 141.973 134.625 137.375 134.625C134.25 134.625 131.125 134.625 131.125 137.75V144C131.125 147.125 128 153.366 128 162.75V172.125H218.625V159.625C203 156.5 199.875 156.5 199.875 156.5Z" fill="#E6E6E6"/>
<path d="M174.875 131.5C171.75 128.375 168.625 125.25 165.5 125.25C165.5 125.25 162.375 125.25 159.25 128.375C159.25 128.375 165.5 134.625 168.625 137.75C170.834 139.959 168.625 140.877 171.75 144C174.875 147.125 178 144 181.125 147.125C187.375 153.377 190.5 159.625 199.875 159.625V156.5C193.625 156.5 178 134.625 174.875 131.5Z" fill="#D46557"/>
<path fill-rule="evenodd" clip-rule="evenodd" d="M181.125 159.625C181.125 153.375 174.875 150.25 174.875 150.25C174.875 150.25 175.17 156.5 171.75 156.5C169.167 156.5 164.205 154.653 158.612 152.12C163.728 145.603 171.053 138.448 174.875 134.625C174.875 134.625 174.875 131.5 171.75 128.375C168.625 125.25 165.5 125.25 165.5 125.25C157.323 133.427 150.022 139.87 144.08 144.895C136.844 141.059 131.125 137.75 131.125 137.75V140.875C131.125 140.875 135.175 143.82 140.745 147.688C132.781 154.308 128 157.958 128 159.625C128 162.642 128 172.125 128 172.125H153C153 172.125 153 169.277 153 162.75C153 161.266 153.766 159.369 155.022 157.247C162.417 161.969 169.281 165.875 171.75 165.875C174.875 165.875 181.125 165.875 181.125 159.625ZM218.625 159.625C218.625 159.625 215.5 165.877 206.125 165.877C203 165.877 203 162.75 203 159.625C203 159.625 203 156.5 199.875 156.5C196.75 156.5 193.625 159.625 190.5 162.75C187.375 165.875 178 172.125 178 172.125H224.875V165.877C224.875 159.625 218.625 159.625 218.625 159.625Z" fill="#ED7161"/>
<path d="M224.875 165.875C221.75 165.875 217.687 172.125 178 172.125C162.375 172.125 134.25 169 131.125 169C128 169 128 169 128 172.125C128 178.375 128 181.5 138.938 181.5C149.452 181.5 171.042 181.5 178 181.5C187.375 181.5 228 181.5 228 169C228 169 228 165.875 224.875 165.875Z" fill="#CCCCCC"/>
</g>
<defs>
<clipPath id="clip0_6_13">
<rect width="100" height="62.5" fill="white" transform="translate(272 119)"/>
</clipPath>
<clipPath id="clip1_6_13">
<rect width="100" height="62.5" fill="white" transform="translate(200 119)"/>
</clipPath>
<clipPath id="clip2_6_13">
<rect width="100" height="62.5" fill="white" transform="translate(128 119)"/>
</clipPath>
</defs>
</svg>
